# xmcd CD database file
#
# Track frame offsets:
#	150
#	15490
#	35972
#	51017
#	67625
#	85617
#	99587
#	115479
#	129870
#	148087
#	166102
#	179950
#	207300
#
# Disc length: 3939 seconds
#
# Revision: 1
# Processed by: cddbd v1.5.2PL0 Copyright (c) Steve Scherf et al.
# Submitted via: CDex 1.70beta2
#
DISCID=b00f610d
DTITLE=Ronnie Rae Rivers - Notice Me
DYEAR=2005
DGENRE=Country
TTITLE0=Notice Me
TTITLE1=Janine (care of the stars)
TTITLE2=Just When I Neede You Most
TTITLE3=Now You're Gone
TTITLE4=Timmy
TTITLE5=Trouble At The Door
TTITLE6=He's Mine
TTITLE7=If Promises Were Gold
TTITLE8=Been Through This Before
TTITLE9=Rodeo Romeo
TTITLE10=Its Only Make Believe
TTITLE11=Happy New Year
TTITLE12=Music Videos (Notice Me, Just When I Needed You Most, Happy New Year)
EXTD=YEAR: 2005
EXTT0=
EXTT1=
EXTT2=
EXTT3=
EXTT4=
EXTT5=
EXTT6=
EXTT7=
EXTT8=
EXTT9=
EXTT10=
EXTT11=
EXTT12=
PLAYORDER=
